<?xml version="1.0" encoding="utf-8"?>
<!-- Generator: Adobe Illustrator 21.1.0, SVG Export Plug-In . SVG Version: 6.00 Build 0)  -->
<svg version="1.1" id="Layer_1" xmlns="http://www.w3.org/2000/svg" xmlns:xlink="http://www.w3.org/1999/xlink" x="0px" y="0px"
	 viewBox="0 0 900 196" xml:space="preserve" preserveAspectRatio="xMinYmin">
<style type="text/css">
	.st0{fill:#B0B7BB;}
	.st1{fill:#B4121B;}
	.st2{fill:#FFFFFF;}
	.st3{fill:#231F20;}
	.st4{fill:#6A747C;}
</style>
<g>
	<g>
		<path class="st0" d="M900,75.7v13.1c0,24.3-11.9,78.2-70.7,106.9c-58.7-28.7-70.7-82.6-70.7-106.9V75.7H900z"/>
	</g>
	<path class="st1" d="M829.3,16.9c0,0,46.1-0.7,70.7,9v49.8H758.7V25.9C783.2,16.2,829.3,16.9,829.3,16.9"/>
	<path class="st2" d="M794.6,32.2c0.6,0.5,1.3,0.8,2,1c0.7,0.2,1.4,0.3,2.1,0.3c1.4,0,2.6-0.3,3.9-0.5c1.3-0.2,2.5-0.4,3.7-0.4
		c1.2,0,2.5,0.3,3.5,1.1c-0.9-0.9-2.2-1.4-3.5-1.6c-1.3-0.2-2.6-0.1-3.9-0.1c-1.3,0.1-2.5,0.1-3.7,0c-1.2-0.1-2.2-0.5-2.9-1.3
		l-0.1-0.1c-0.4-0.3-1-0.3-1.3,0.2C794.1,31.2,794.1,31.8,794.6,32.2L794.6,32.2z M826.7,69.5c-0.5,0.6-0.5,1.3-0.5,1.8
		c0,0,0,0,0,0.1c0-0.1,0.1-0.1,0.1-0.2c0.2-0.3,0.4-0.6,0.6-0.8c-0.1-0.2-0.1-0.4-0.1-0.7C826.7,69.6,826.7,69.5,826.7,69.5
		 M827.8,67.2c-0.2-0.4-0.5-1-0.5-1.8c0-0.1,0-0.2,0-0.4v0c-0.3,0-0.6,0-0.9,0c0,0-0.1,0-0.1,0h-0.1c-0.1,0-0.2,0-0.2,0
		c-0.1,0-0.2,0-0.3,0.1c-0.1,0.1-0.2,0.3-0.3,0.7c-0.1,0.2-0.2,0.5-0.2,0.8c0,0.1,0,0.3,0.1,0.4c0.1,0.1,0.1,0.2,0.3,0.3
		c0.7,0.3,1.1,0.4,1.5,0.4h0.1c0.1,0,0.2,0,0.4-0.1C827.7,67.4,827.8,67.3,827.8,67.2 M828.1,68.1c-0.1,0.1-0.2,0.2-0.3,0.3
		c0,0-0.1,0.1-0.2,0.2c-0.1,0.1-0.1,0.2-0.1,0.2c0,0.1,0,0.2,0,0.3c0,0.2,0,0.4,0.2,0.6c0.1,0.2,0.4,0.4,0.9,0.6
		c0.4,0.2,0.6,0.2,0.9,0.2c0.5,0,0.7-0.2,0.9-0.5c0.2-0.2,0.3-0.5,0.3-0.7c-0.8-0.4-1.6-0.9-2.2-1.5C828.3,68,828.2,68,828.1,68.1
		 M823.4,66.1c-0.2,0.3-0.3,0.5-0.4,0.7c0.1,0,0.1-0.1,0.2-0.2c0.5-0.4,0.9-0.5,1.3-0.6c0-0.2,0.1-0.3,0.1-0.4l0-0.1v0
		c0-0.1,0.1-0.3,0.1-0.4C824.1,65.3,823.7,65.7,823.4,66.1 M852.6,60.3c-0.4-0.1-0.9-0.2-1.4-0.5c-1-0.6-1.6-1.7-1.6-2.6
		c0-0.9,0.5-2.1,1.3-3c0.6-0.6,1.2-1.1,1.8-1.5c0,0-2.2-2.3-2.5-2.5c-0.7-0.6-1.5-1.2-2.5-1.5c-1-0.3-2,0-2.9,0.5
		c-0.6,0.3-1.2,0.6-1.7,0.9c-2.2,1.4-3.3,3.9-3.7,4.9c0.1-0.1,0.2-0.2,0.3-0.2c0.4-0.3,0.7-0.5,1-0.6c0.1,0,0.2,0,0.3,0
		c0.2,0,0.3,0.1,0.4,0.2c0.1,0.1,0.1,0.2,0.1,0.4c0,0.2,0,0.4-0.1,0.4c0,0,0,0.1-0.1,0.3c-0.1,0.2-0.1,0.5-0.2,0.8
		c-0.1,0.5-0.3,1.2-0.3,1.9c0.4-0.7,0.9-1.1,0.9-1.1c0,0,0,0,0.1-0.1c0.1,0,0.1-0.1,0.3-0.1c0.1,0,0.2,0,0.2,0.1
		c0,0.1,0.1,0.1,0.1,0.2c0,0.1,0,0.2,0,0.3c0,0.8-0.2,1.7,0.3,2.5c0.4,0.7,0.6,1.2,0.3,2c-0.3,0.6-1,1.2-1.5,1.6
		c-0.3,0.2-0.7,0.4-1.3,0.4c-0.5,0.1-1.2,0-1.9,0.2c-0.8,0.3-1.5,0.9-2.3,1.1c-0.2,0.1-0.5,0.1-0.8,0.1c-1,0-2.1-0.3-2.8-1
		c-0.4-0.4-0.5-0.8-0.5-1.2c0-1.1,0.9-1.9,0.9-2l0-0.1c0-0.1,0.1-0.1,0.1-0.2l0-0.1c0,0-0.1,0-0.2,0c-0.1,0-0.2,0-0.4,0
		c-0.8,0-2.2,0-2.2,0c0,0-0.5,0-0.9,0.3l0,0.1c0,0-0.1,0.1-0.1,0.2c-0.1,0.1-0.2,0.3-0.3,0.6c-0.1,0.4,0,0.9-0.2,1.6
		c-0.1,0.6-0.5,1.4-0.5,1.9c0,0.1,0,0.2,0,0.3c0,0.7,0.3,1.3,0.5,1.6c0.8,1.2,2.4,1.9,3.8,2.3c1.5,0.4,2.8,0.6,3.4,0.7
		c0.1,0,0.2,0,0.2,0c0.2-0.1,2.5-0.7,3.3-0.8c0.8-0.1,2.7-0.4,3.5-0.5c0,0-1.2-0.6-1.2-0.6c0,0-0.1,0-0.2-0.1
		c-0.1-0.1-0.2-0.2-0.2-0.4c0-0.1,0-0.1,0-0.2c0.1-0.1,0.1-0.2,0.2-0.2c0.1,0,0.2,0,0.3,0c0.1,0,0.2,0,0.2,0c0,0,0.3,0,0.8,0.1
		c0.5,0,1.1,0.1,1.8,0.1c0.5,0,1,0,1.4-0.1c1-0.1,1.6-0.6,1.8-0.8c-0.1,0-0.1,0-0.2,0c-0.2,0-0.4-0.1-0.6-0.2
		c-0.2-0.1-0.5-0.2-0.6-0.3c-0.1,0-0.1-0.1-0.2-0.2c-0.1-0.1-0.1-0.2-0.1-0.3c0,0,0-0.1,0-0.1c0-0.1,0.1-0.2,0.1-0.2
		c0.1,0,0.1-0.1,0.2-0.1c0.1-0.1,0.3-0.1,0.3-0.1c0,0,0.4,0,0.9-0.1c0.5-0.1,1.1-0.2,1.6-0.4c0.7-0.2,1.5-0.8,1.8-1.1
		c-0.1,0-0.3-0.1-0.4-0.2c-0.3-0.2-0.8-0.4-1-0.6c0,0-0.1-0.1-0.1-0.1c-0.1-0.1-0.1-0.2-0.1-0.3l0-0.1c0-0.1,0.1-0.1,0.2-0.2
		c0.1,0,0.1-0.1,0.2-0.1c0.1,0,0.3-0.1,0.3-0.1c0,0,0.1,0,0.3-0.1c0.2,0,0.4-0.1,0.7-0.2c0.6-0.1,1.2-0.3,1.7-0.6
		c0.3-0.1,0.4-0.3,0.5-0.4c0,0,0,0-0.1,0C853,60.4,852.8,60.4,852.6,60.3 M881.9,65.2c-0.1-0.2-0.2-0.4-0.2-0.7c0-0.5,0.3-1,0.6-1.4
		c0-0.1,0.1-0.1,0.1-0.2c0.3-0.4,0.4-0.9,0.4-1.4c0-0.7-0.2-1.6-1.2-2.5c0,0-0.2-0.2-0.2-0.7c0-0.4,0.1-0.9,0.4-1.7
		c0.3-0.7,0.6-1.3,0.6-1.9c0-0.3-0.1-0.6-0.2-1c-0.1,0.5-0.3,1.7-1,1.7c-0.5,0-0.5-0.7-0.4-1.1c0-0.1,0-0.2,0.1-0.4
		c0-0.3,0.1-0.7,0.1-1.2c0-0.7-0.1-1.5-0.4-2.2c-0.1,0.5-0.2,0.8-0.4,1c-0.1,0.1-0.2,0.1-0.3,0.1c-0.2,0-0.3-0.1-0.4-0.2
		c-0.1-0.1-0.1-0.2-0.2-0.4c-0.1-0.2-0.1-0.5-0.1-0.5c0,0-0.1-0.6-0.2-1.3c-0.1-0.6-0.3-1.3-0.5-1.7c0,0.2-0.1,0.5-0.1,0.8
		c-0.1,0.3-0.1,0.9-0.6,0.9c-0.3,0.1-0.4-0.2-0.4-0.5c-0.1-0.3-0.1-0.6-0.2-0.9c-0.1-0.5-0.3-1.1-0.5-1.5c-0.1-0.2-0.2-0.4-0.3-0.5
		c0,0.1-0.1,0.1-0.1,0.2c-0.1,0.2-0.2,0.4-0.4,0.7c-0.3,0.6-0.8,1.2-1.5,1.7c-1.3,0.9-2.3,1.1-3.1,1.1c-1.3,0-3.4-0.4-5.2-1.6
		c-1-0.7-2.8-1.7-4-2.6l-0.3-0.2l0.4,0c0.4,0,0.8,0,1.2,0c1.8,0,3.7-0.2,5-0.8c1.6-0.8,2.4-1.8,3.1-2.8c0.7-1,1.4-2,2.8-2.7
		c0.8-0.5,1.7-0.6,2.5-0.6c1,0,1.8,0.2,2.1,0.3c-0.3-1.2-1.8-2.3-3.6-2.3c-1.3,0-2.7,0.6-4,2l-0.2,0.2l0-0.3l0-0.1c0,0,0-0.1,0-0.2
		c0-0.1,0-0.3-0.1-0.6c-0.1-0.5-0.3-1.1-0.8-1.7c-0.9-1.2-2.6-2.5-6.1-2.5c-0.3,0-0.6,0-0.9,0c-2.9,0.2-8.3,1.9-13.2,2.8
		c-4.8,0.9-12,1.4-15,1.4c-1.1,0-2.3-0.1-3.3-0.3c-1-0.2-1.8-0.6-2.3-1.2c-0.3-0.4-0.5-0.9-0.5-1.4c0-1.1,0.6-1.8,1.4-2.1
		c0.8-0.4,1.7-0.4,2.4-0.4c2.4,0,5.6,1.5,8.2,2.4c1.8,0.7,3.7,0.7,4.7,0.7c2.7,0,6.1-1.4,7.8-2.2c1.4-0.6,2.5-1,4.6-1
		c0.5,0,1,0,1.6,0.1c-0.7-0.8-2.3-1.6-4.4-1.6c-1.3,0-2.9,0.3-4.5,1.3l-0.1,0.1l-0.1-0.1c-0.1-0.1-0.1-0.3-0.1-0.5
		c0-0.4,0.2-0.9,0.6-1.3c0.4-0.4,0.9-0.7,1.5-1c-0.4-0.2-1.1-0.4-1.9-0.6c-1-0.2-2.3-0.4-3.7-0.4c-0.2,0-0.3,0-0.5,0
		c-2.3,0.1-3.8,0.6-5.3,1.2c-1.5,0.6-3,1.1-5.1,1.1c-0.2,0-0.4,0-0.6,0c-0.4,0-0.9,0-1.3,0c-2,0-3.9,0.2-5.3,0.9
		c-1.4,0.7-2.2,1.7-2.2,3.3c0,1.4,0.8,2.6,2.3,3.4c1.5,0.8,3.7,1.3,6.4,1.3c0.1,0,0.1,0,0.2,0c6.8-0.1,14.9-1.6,19.8-2.5
		c1.6-0.3,5.1-1.2,8.1-1.2c1.3,0,2.6,0.2,3.5,0.8c0.9,0.6,1.5,1.5,1.5,2.9c0,0.7-0.2,1.6-0.8,2.3c-0.6,0.7-1.7,1.2-3.4,1.2
		c-2,0-4.3-0.6-7-1l-0.2,0c-0.6-0.1-1.2-0.2-1.8-0.2c-4-0.5-9.2-0.8-12.1-0.8c-0.3,0-0.5,0-0.8,0c-2.2,0.1-6.5,0.3-10.5,1
		c-4.2,0.7-8.1,1.6-9.3,1.9v0.2l0,3.8l-1.1-1.7c0,0.1,0,0.1,0,0.2c0,1.6-0.4,3-0.6,3.8c-0.2,0.5-0.3,0.9-0.5,1.1
		c0,0.1-0.1,0.1-0.1,0.2l-0.9,1.7l-0.8-1.4c-0.3,1.6-1,3.1-2,4.4c-0.2,0.3-0.8,0.8-1.4,1.2c0,0-0.1,0.1-0.1,0.1
		c-0.2,0.1-0.4,0.2-0.5,0.3l-1.6,1v-2.9c-0.3,0.4-0.7,0.8-1,1.1c-0.7,0.6-1.4,0.9-2.2,0.9c-0.3,0-0.5,0-0.7-0.1l-1.3-0.4l0.7-1.2
		c0.1-0.1,0.2-0.3,0.3-0.6c0.3-0.6,0.3-0.9,0.3-1.1c0,0,0-0.2-0.1-0.2c-0.1-0.1-0.3-0.2-0.8-0.2c-0.2,0-0.4,0-0.6,0
		c-0.8,0.1-2.5,0.5-5.5,2.1c-1.6,0.8-3.1,1.7-4.6,2.6c-1,0.6-1.9,1.1-2.9,1.7c-1.4,0.8-2.9,1.4-4.5,1.7c-0.4,0.1-0.9,0.1-1.3,0.1
		c-0.7,0-1.3-0.2-1.7-0.6c-0.7,0-1.3-0.2-1.9-0.5c-0.6-0.3-1.2-0.7-1.6-1.1c-0.3-0.3-0.6-0.6-0.8-0.9c-0.8,0.7-1.5,1.6-1.6,2.7
		c0,0.3,0,0.6,0,0.9c0,0.1,0,0.3,0,0.4c0.1,0,0.3,0,0.4,0c3.1,0,4.9-0.5,4.9-0.5l0.1,0c0.2,0,0.3,0.1,0.4,0.3l0,0.1
		c0,0.2-0.1,0.3-0.3,0.4c0,0-1.8,0.5-5.2,0.5c-0.1,0-0.2,0-0.4,0c0.1,0.9,0.3,1.7,0.7,2.3c0.5,0.7,1.2,0.9,1.5,0.9c0,0,0.1,0,0.1,0
		c2.5-1.8,4.2-2.3,4.2-2.4c0,0,0.1,0,0.1,0c0.2,0,0.3,0.1,0.4,0.3c0,0,0,0.1,0,0.1c0,0.2-0.1,0.3-0.3,0.4l-0.1,0
		c-0.1,0-0.2,0.1-0.3,0.1c-0.3,0.1-0.7,0.3-1.2,0.6c-0.3,0.2-0.7,0.4-1.1,0.6c0,0,0,0.1,0,0.1c0,0.1,0,0.2,0.1,0.3
		c0.4,0.6,0.8,1.3,1,1.7c0.2,0.3,0.6,0.6,1,0.6c0.4,0,1-0.3,1.6-1.2c0.4-0.5,0.9-0.9,1.8-0.9l2.3-0.1l0,0c0,0,0.1,0,0.1,0
		c0.1,0,0.2,0,0.4-0.1c0.3-0.1,0.7-0.3,0.9-0.6c0.2-0.2,0.3-0.4,0.5-0.5c0.2-0.1,0.4-0.2,0.6-0.2c0.4,0,0.9,0.1,1.5,0.3
		c1,0.2,1.7,0.4,2.2,0.4c0.2,0,0.3,0,0.4-0.1c-0.1-0.1-0.2-0.2-0.3-0.3c-0.2-0.2-0.5-0.5-0.6-0.7c-0.1-0.2-0.2-0.3-0.2-0.5
		c0-0.1,0-0.2,0.1-0.2c0.1-0.1,0.3-0.2,0.4-0.2c0.2,0,0.3,0.1,0.4,0.1c0.1,0.1,0.2,0.2,0.2,0.2c0.9,0.7,2.7,1.1,4.2,1.1
		c0.4,0,0.8,0,1.1-0.1c-0.2-0.1-0.6-0.4-0.8-0.6c-0.1-0.1-0.2-0.3-0.2-0.5c0-0.1,0-0.2,0.1-0.3c0.1-0.1,0.3-0.1,0.5-0.1
		c0.4,0,1,0.1,1,0.1c0,0,0.1,0,0.3,0.1c0.2,0,0.4,0.1,0.7,0.1c0.6,0.1,1.3,0.2,2,0.2c0.8,0,1.5-0.1,1.9-0.4
		c-0.7-0.7-1.2-1.2-1.2-1.2c0,0-0.2-0.2-0.2-0.4c0-0.1,0-0.2,0.1-0.3c0.1-0.1,0.2-0.2,0.4-0.2c0.3,0,0.6,0.2,0.6,0.2
		c0,0,0.1,0,0.3,0.1c0.2,0.1,0.5,0.2,0.8,0.2c0.7,0.2,1.6,0.4,2.4,0.4c0.7,0,1.4-0.1,1.8-0.5c-0.6-0.2-0.9-0.5-0.9-0.6
		c0,0-0.1-0.2-0.1-0.4c0-0.1,0-0.2,0.1-0.2c0.1-0.1,0.2-0.2,0.3-0.2c0.1,0,0.2,0,0.3,0c0.1,0,0.1,0,0.2,0c0.3,0,0.5,0,0.7,0
		c1.4,0,2.1-0.4,2.4-0.5l-1.4-1.7c0.2-0.1,0.5-0.3,0.6-0.3c0.2-0.1,0.4-0.2,0.7-0.3c0.5-0.1,1.3-0.3,2.2-0.6
		c1.8-0.6,4.3-1.5,6.8-2.9c4.9-2.7,9.7-6.1,14.5-7.2c1.2-0.3,2.4-0.4,3.5-0.4c1.3,0,2.5,0.1,3.4,0.3c0.9,0.2,1.9,1,3,2
		c1.1,1,2.2,2.2,3.2,3.3c1.1,1.2,2.1,2.1,2.5,2.4c0.1,0.1,0.2,0.2,0.2,0.2c0,0,0.1,0.1,0.4,0.3c0.2,0.2,0.6,0.4,1,0.6
		c0.8,0.5,1.7,0.9,2.6,1.1c0-0.3-0.4-2.1,0.4-1.7c0.3,0.1,0.5,0.5,0.8,0.7c0.3,0.3,0.7,0.6,1,0.8c0.6,0.4,1.2,0.7,1.8,0.7
		c0.2,0,0.4,0,0.5-0.1c-0.4-0.4-0.6-0.8-0.6-0.8c0,0-0.1-0.1-0.1-0.3c0-0.1,0.1-0.2,0.2-0.3c0.1-0.1,0.3-0.1,0.6-0.1
		c0.1,0,0.2,0,0.3,0c0.2,0,0.6,0,1.1,0c0.8,0,1.9-0.1,2.9-0.2c1.3-0.2,2.5-0.6,3-0.8c0.2-0.1,0.3-0.1,0.3-0.1c0,0,0.4-0.1,0.7-0.1
		c0.2,0,0.4,0,0.6,0.2c0.3,0.2,0.5,0.5,0.6,0.8c0.1,0.3,0.3,0.7,0.4,0.9c0.4,0.9,1.2,2.1,1.2,3.9c0,0.3,0,0.6-0.1,0.9
		c-0.1,0.5-0.2,1.5-0.7,2.3c-0.9,1.3-1.8,1.3-1.9,1.3c0,0-0.2,0-0.5,0c-0.2,0-0.4,0-0.6,0c-0.6-0.1-1.3-0.4-1.7-0.4
		c-0.1,0-0.3,0-0.4,0.1c-0.5,0.3-0.6,0.6-0.7,1c0,0.4,0.2,0.8,0.3,1l0,0c0,0,0,0.1,0,0.1c0,0.1,0.1,0.2,0.2,0.3
		c0.2,0.2,0.5,0.5,1.1,0.5c0.1,0,0.1,0,0.2,0c0.4,0,0.9-0.3,1.2-0.6c0.3-0.3,0.6-0.6,0.7-0.7l0-0.1l0.8-1.2c0,0,0-0.1,0.1-0.1
		c0.1-0.1,0.2-0.1,0.3-0.1c0.1,0,0.1,0,0.2,0.1c0.2,0.1,0.2,0.2,0.2,0.4c0,0.1,0,0.2,0,0.2c0,0.1,0,0.1-0.1,0.1c0,0-0.1,0.1-0.2,0.2
		c-0.1,0.1-0.2,0.3-0.4,0.4c-0.3,0.3-0.5,0.6-0.5,0.6l0,0c0,0,0,0.1,0,0.1c0,0.1,0,0.2,0.2,0.4c0.2,0.2,0.4,0.5,0.6,0.7
		c0.2,0.2,0.3,0.4,0.5,0.5c0.5,0.2,1.1-0.5,1.4-0.8c0.3-0.3,0.5-0.6,0.6-1c0.2-0.5,0.2-1.1,0.2-1.6c0-0.3,0-0.5,0-0.7
		c0-0.2,0-0.3,0-0.3c0,0,0-0.1,0-0.1c0-0.1,0-0.2,0.1-0.3c0.1-0.1,0.2-0.2,0.3-0.2l0.1,0c0.2,0,0.3,0.1,0.4,0.2
		c0.1,0.1,0.1,0.2,0.1,0.2v0.4c0,0.3,0,0.8,0,1.2c0,0.4-0.1,0.8-0.1,1.1c0,0.1,0,0.1,0,0.1c0,0.1,0,0.1,0,0.1c0,0,0.1,0.1,0.1,0.1
		c0.1,0,0.2,0,0.3,0c0,0,2-0.1,2-0.1h0c0.1,0,0.3,0,0.6-0.2c0.2-0.1,0.4-0.4,0.5-0.9c0-0.1,0-0.2,0-0.3c0-0.4-0.1-0.7-0.3-0.9
		C882.3,65.5,882.1,65.4,881.9,65.2 M825.5,63.8c0,0,0,0.1,0,0.1c0,0.1,0,0.2,0.1,0.2c0.1,0.1,0.3,0.1,0.7,0.2c0.2,0,0.4,0,0.5,0
		c0.2,0,0.4,0,0.6-0.1c0-0.1,0.1-0.3,0.1-0.4c0.1-0.3,0.2-0.6,0.2-0.8c0.1-0.2,0.1-0.5,0.1-0.7c0-0.1,0-0.3,0-0.5
		c-0.3-0.3-0.7-0.7-0.9-0.8c-0.1-0.1-0.3-0.2-0.5-0.2c-0.2,0-0.3,0-0.6,0.2c-0.2,0.1-0.4,0.3-0.6,0.5c-0.2,0.2-0.3,0.3-0.3,0.5
		c0,0.1,0,0.2,0.1,0.4c0.3,0.4,0.3,0.7,0.3,1C825.5,63.6,825.5,63.7,825.5,63.8 M824.6,60.6c-0.7,0-1.2,0.3-1.6,0.6
		c0.1,0,0.1,0,0.2,0c0.1,0,0.2,0,0.3,0c0.4,0,0.7,0.1,0.9,0.2c0.2-0.2,0.4-0.4,0.6-0.6C825,60.6,824.8,60.6,824.6,60.6 M784.6,67.4
		c-0.6,0.6-0.7,1.2-0.7,1.8c0,0.3,0,0.6,0.1,0.8c0-0.1,0-0.1,0.1-0.2c0.2-0.8,0.7-1.2,1.1-1.5c-0.1-0.2-0.2-0.3-0.3-0.5
		C784.7,67.6,784.6,67.5,784.6,67.4 M880.3,69L880.3,69l0-0.2l-0.7,0h0h0c-0.1,0-0.2,0-0.3,0c0.2,0.8,0.7,1.3,1.1,1.6
		c0.5,0.3,1,0.4,1.4,0.4c0,0,0.1,0,0.1,0c-0.1,0-0.1-0.1-0.2-0.1C880.7,70.1,880.4,69.4,880.3,69 M874.5,68.8
		c-0.1-0.1-0.2-0.2-0.2-0.3c-0.3,0.6-0.5,1.1-0.5,1.5c0,0.8,0.5,1.5,0.8,1.8c0-0.1,0-0.1-0.1-0.2c-0.1-0.3-0.1-0.5-0.1-0.8
		c0-0.7,0.2-1.1,0.4-1.3l0,0l0.2-0.2c0,0,0-0.1-0.1-0.1C874.8,69.1,874.6,68.9,874.5,68.8 M831.9,59.8c0.2,0,0.4,0,0.5,0
		c0.1,0,0.2,0,0.3,0h0c0.1,0,0.2,0,0.2,0c-0.3-0.8-0.7-1.3-1.1-1.5c-0.5-0.3-1-0.4-1.4-0.4c-0.1,0-0.2,0-0.3,0
		c0.1,0,0.1,0.1,0.2,0.1c1,0.5,1.3,1.2,1.4,1.5v0L831.9,59.8z M868.6,66.9c-0.3,0.5-0.3,1-0.3,1.4v0c0-0.1,0.1-0.1,0.1-0.2
		c0.5-0.9,1.2-1.2,1.6-1.3c0-0.1,0-0.3,0-0.4c0-0.2,0-0.4,0.1-0.6c0,0,0,0,0-0.1C869.2,66.1,868.8,66.5,868.6,66.9 M871.6,63
		c0,0.5,0.3,1,0.6,1.4c0.2,0.3,0.5,0.3,0.9,0.4c0.4,0.1,0.7,0.2,1.1,0.1c0.3,0,1-0.1,0.7-0.5c-0.2-0.2-0.3-0.4-0.5-0.6
		c-0.1-0.3-0.2-0.6-0.4-0.8c-0.1-0.4-0.2-0.8-0.3-1.2c0-0.1-0.1-0.3-0.2-0.4c-0.1-0.1-0.2-0.2-0.3-0.2c-0.1,0-0.2,0.1-0.4,0.2
		c-0.7,0.7-0.8,0.8-1.1,1.1C871.7,62.6,871.6,62.8,871.6,63 M871.8,61.3L871.8,61.3c0.2-0.1,0.3-0.3,0.5-0.5
		c0.1-0.1,0.2-0.2,0.3-0.2c-0.4-0.2-0.8-0.3-1.2-0.3c-0.6,0-1.1,0.3-1.5,0.5c-0.2,0.1-0.3,0.3-0.5,0.4c0.1,0,0.1-0.1,0.2-0.1
		c0.4-0.1,0.7-0.2,1-0.2C871.2,61,871.5,61.1,871.8,61.3L871.8,61.3z M785.6,55.1c-0.4-0.3-0.8-0.4-1.2-0.4c0.1,0,0.1,0.1,0.2,0.1
		c0.8,0.6,1,1.3,1.1,1.7c0.1,0,0.1,0,0.1,0l0.1,0l0,0l0.1,0h0c0,0,0.4,0.3,0.8,0.7C786.7,56.2,786.2,55.5,785.6,55.1 M781.1,58.7
		c-0.7,0-1.2,0.3-1.5,0.6c-0.2,0.2-0.4,0.3-0.5,0.5c0.1,0,0.1-0.1,0.2-0.1c0.4-0.1,0.7-0.2,1-0.2c0.3,0,0.6,0.1,0.8,0.1
		c0.2-0.3,0.4-0.5,0.6-0.8C781.5,58.7,781.3,58.7,781.1,58.7 M786.9,58.9L786.9,58.9l0-0.1c0-0.1,0-0.3-0.3-0.6
		c-0.2-0.2-0.5-0.4-0.7-0.6c-0.2-0.1-0.3-0.2-0.3-0.3l0,0c0,0-0.1,0-0.1,0c-0.1,0-0.2,0-0.4,0.1c0,0-0.1,0-0.2,0.1
		c-0.1,0-0.2,0.1-0.4,0.2c-0.3,0.1-0.6,0.4-1,0.6c0.1,0.1,0.1,0.2,0.2,0.2c0.4,0.5,1.1,1.1,1.9,1.5c0.3,0.2,0.7,0.3,1.1,0.4
		c0-0.2-0.1-0.3-0.1-0.5C786.6,59.4,786.8,59,786.9,58.9L786.9,58.9z M781.9,34.4c0.4,1.4,1.7,4.4,2.3,5.8c0.2,0.5,0.3,0.8,0.3,0.8
		c0,0,0.3,0.7,0.3,1.5c0,0.4-0.1,0.8-0.3,1.1c-0.3,0.4-0.6,0.8-0.6,0.8v0l0,0h0l0,0l0,0c0,0-0.1,0.1-0.1,0.1
		c-0.1,0.1-0.1,0.3-0.1,0.6c0,0.2,0.1,0.5,0.3,0.9c0,0,0.2,0.4,0.5,0.9c0.3,0.5,0.6,1.1,0.8,1.3c0.1,0.1,0.1,0.2,0.2,0.3
		c0.1,0.1,0.1,0.1,0.1,0.1l0-0.1c0-0.1,0-0.2,0-0.5c0,0,0-0.1,0-0.1v-0.1c0-0.3,0-0.7,0-1c0-0.3,0.2-0.4,0.4-0.4
		c0.2,0,0.3,0.1,0.4,0.3c0.1,0.2,0.1,0.6,0.3,1v0c0,0,0,0,0,0.1c0,0.1,0.1,0.2,0.1,0.3c0.1,0.3,0.3,0.7,0.6,1.1
		c0.5,0.8,1.3,1.7,2.4,2.1c0-0.1,0-0.3,0-0.4c0-0.5,0-0.9,0-1c0,0,0-0.1,0-0.1c0-0.1,0-0.1,0-0.2c0-0.1,0.1-0.2,0.2-0.2h0h0
		c0.1,0,0.1,0,0.2,0.1c0.1,0,0.1,0.1,0.2,0.1c0.1,0.1,0.1,0.1,0.1,0.2h0l0,0.1c0,0,0.1,0.1,0.2,0.2c0.1,0.1,0.2,0.4,0.4,0.6
		c0.4,0.5,0.9,1.2,1.5,1.9c1.1,1.3,2.6,2.6,3.9,2.8c-0.1-0.4-0.1-0.7-0.1-1.1c0-0.7,0.1-1.5,0.4-2.1c-0.1,0.1-0.3,0.2-0.4,0.3
		l-1.9,1.6L795,52c0.1-2.4,0.9-4.5,2.4-6c0.4-0.5,1-0.9,1.5-1.2c-0.2,0-0.4-0.1-0.6-0.1c-0.1,0-0.2,0-0.2-0.1l-0.5-0.2
		c-3.2-0.4-7.9-1.9-12.3-6c-0.5-0.5-1.1-1.3-1.1-2.3c0-0.5,0.2-1,0.5-1.5c0.4-0.5,1-0.9,1.8-1.2l0,0h0l0,0l0,0l0.1-0.1
		c0.1-0.1,0.1-0.1,0.1-0.2c0-0.1-0.1-0.4-0.7-0.9c-0.7-0.6-1.2-1-1.6-1.2c-0.3-0.3-0.5-0.4-0.5-0.4l0,0l0,0l0,0c0,0-0.2,0-0.4,0.3
		c-0.4,0.4-1.8,1.5-1.8,3C781.8,34,781.8,34.2,781.9,34.4 M808.7,26.6c0.3,0.1,0.5,0.3,0.7,0.4c0,0,0.1,0.1,0.1,0.1l0.1-0.1
		c0,0,0.3-0.3,0.6-0.5c0.1-0.1,0.7-0.5,0.6-0.7c-0.1-0.4-1.6,0.1-1.8,0.1c-0.2,0.1-0.4,0.1-0.5,0.2c-0.1,0-0.1,0.1-0.2,0.1l-0.1,0.1
		C808.1,26.5,808.6,26.5,808.7,26.6 M803.4,29.4L803.4,29.4c0-0.3,0.2-0.6,0.3-0.8c0.2-0.3,0.5-0.6,0.4-1c-0.1-0.2-0.4-0.4-0.4-0.6
		c0-0.1,0.1-0.2,0.2-0.4c0.1-0.1,0.3-0.2,0.5-0.2c0.6-0.2,2.5-0.9,2.6-0.9c0.2-0.2,0.2-0.4,0.5-0.5c0.2-0.2,0.6-0.4,1.4-0.6
		c2-0.4,7.5-0.8,8-0.8c0.2,0,0.4,0.1,0.6,0.3c0.3,0.3,0.7,0.7,1,1c0.1,0.2,0.3,0.3,0.3,0.4c0.1,0.1,0.1,0.2,0.1,0.2l0.1,0.1l0.1-0.1
		c0,0,0.1-0.1,0.2-0.1c0.1,0,0.3-0.1,0.4-0.1c0.2,0,0.5,0.1,0.7,0.2c0.2,0.2,0.4,0.4,0.5,0.9c0.1,0.2,0.1,0.5,0.1,0.7
		c0,1.3-0.9,2.6-1.5,3.3l-0.1,0.1l0.1,0.1c2,3,2.4,5.8,2.4,6.7c-0.2-0.4-0.6-0.9-0.6-0.9c0,0-0.1-0.1-0.1-0.2
		c-0.1-0.1-0.2-0.2-0.3-0.3c-0.1,0-0.1,0-0.1,0c-0.1,0-0.2,0-0.3,0.1c-0.1,0.1-0.1,0.2-0.1,0.3c0,0.1,0,0.2,0.1,0.4
		c0.9,2.6,1.1,5.4,1.1,6.9v0.1c-0.3-0.6-0.9-1.4-0.9-1.4c-0.2-0.3-0.3-0.4-0.5-0.4c-0.1,0-0.2,0.1-0.3,0.1c-0.1,0.1-0.1,0.2-0.1,0.3
		c0,0.1,0,0.1,0,0.2c0.5,1.2,0.6,2.4,0.6,3.4c0,1.4-0.3,2.6-0.6,3.5c-0.1,0.4-0.3,0.8-0.4,1c0,0.1-0.1,0.1-0.1,0.2
		c-0.1-0.1-0.2-0.3-0.3-0.5c-0.2-0.4-0.5-0.8-0.6-1.2c-0.1-0.2-0.1-0.3-0.2-0.4c-0.1-0.1-0.2-0.1-0.3-0.1c-0.1,0-0.2,0.1-0.3,0.2
		c-0.1,0.1-0.1,0.2-0.1,0.4c0,0.1,0,0.1,0,0.2c0,0.3,0,0.5,0,0.8c0,2.4-1,4.1-1.9,5.2c-0.5,0.5-1,0.9-1.3,1.2
		c-0.2,0.1-0.3,0.2-0.4,0.3c0-0.6,0-2.6,0-3.4c0-0.1,0-0.3-0.1-0.4c-0.1-0.1-0.2-0.2-0.3-0.2c-0.1,0-0.2,0-0.2,0.1
		c-0.1,0.1-0.1,0.1-0.1,0.2c-0.7,1.6-1.4,2.5-2,3c-0.6,0.5-1.1,0.6-1.5,0.6c-0.2,0-0.3,0-0.4-0.1c0.1-0.1,0.2-0.4,0.3-0.7
		c0.2-0.5,0.4-1,0.4-1.6c0-0.4-0.1-0.8-0.4-1c-0.3-0.3-0.8-0.4-1.5-0.4c-0.2,0-0.4,0-0.7,0c-1.6,0.2-3.9,1.2-5.9,2.2
		c-1.6,0.8-2.9,1.6-3.3,1.9c-0.4-0.8-0.5-1.5-0.5-2.2c0-0.9,0.3-1.7,0.6-2.2c0.1-0.3,0.3-0.5,0.4-0.6c0.1-0.1,0.1-0.1,0.1-0.2l0-0.1
		c0,0,0.1-0.1,0.1-0.2c0.1-0.1,0.1-0.2,0.1-0.3c0-0.1,0-0.2-0.1-0.2c-0.1-0.1-0.2-0.1-0.3-0.1c-0.8,0.1-1.5,0.4-1.9,0.7
		c-0.3,0.2-0.6,0.4-0.8,0.6c0.1-2.6,1.1-4.3,2.1-5.3c1-1.1,2.1-1.6,2.4-1.7c0.2-0.1,0.4-0.2,0.4-0.3c0.1-0.1,0.1-0.2,0.1-0.3
		c0-0.1,0-0.1,0-0.2c0-0.1-0.1-0.1-0.1-0.2c-0.2-0.1-0.4-0.1-0.4-0.1c0,0-0.6-0.1-1.2-0.3c-0.3-0.1-0.6-0.1-0.8-0.2
		c-0.1,0-0.1,0-0.2-0.1c1.7-2.2,4.2-2.5,5.5-2.5c0.3,0,0.5,0,0.7,0c0.1,0,0.1,0,0.2,0c0,0,0.1,0,0.1,0c0.1,0,0.2,0,0.3,0
		c0.2,0,0.4,0,0.5-0.1c0.1-0.1,0.2-0.2,0.2-0.3c0-0.2-0.1-0.2-0.2-0.3c-0.1-0.1-0.1-0.1-0.1-0.1c0,0,0,0,0,0c-0.1,0-0.4-0.2-1-0.6
		c-0.2-0.1-0.3-0.2-0.4-0.3c-0.1-0.1-0.1-0.1-0.1-0.2l0-0.1c0.1,0,0.4,0,0.7,0c0.4,0,0.9,0.1,1.1,0.1c0.6,0.2,1.2,0.3,1.7,0.3
		c0.9,0,1.5-0.4,2-0.8c0.4-0.4,0.7-0.9,0.8-1.2c0.1-0.2,0.2-0.4,0.2-0.6c0-0.4-0.2-0.7-0.6-0.8c-0.2,0-0.5-0.1-0.9-0.1
		c-0.4,0-0.9,0.1-1.3,0.5c-0.3,0.3-0.5,0.3-0.6,0.3c-0.1,0-0.1,0-0.2,0l0,0c0,0-0.8-0.8-0.8-0.8c-0.3-0.1-0.5-0.2-0.7-0.3
		c-0.1-0.1-0.1-0.1-0.1-0.1l0-0.1c0,0,0.1-0.1,0.1-0.1c0.5-0.3,0.7-0.3,1.1-0.3c0.4,0,1,0.1,1.9,0.1c0.2,0,0.3,0,0.5,0
		c0.7,0,1.2-0.3,1.5-0.6c0.3-0.3,0.3-0.7,0.3-1.1c0-0.5-0.1-0.8-0.1-0.8c0,0-0.5-1.4-1.5-3c-0.3-0.5-0.7-0.6-1.1-0.6
		c-0.5,0-1.1,0.3-1.5,0.6c-0.4,0.3-0.7,0.6-0.7,0.6c-0.4,0.3-0.7,0.4-1,0.4c-0.4,0-0.7-0.2-1-0.4C803.7,30,803.5,29.7,803.4,29.4
		 M787.5,32.6c0.5-0.6,0.6-1.2,0.6-1.6c0-0.5-0.2-0.9-0.5-1.2c-0.2-0.2-0.3-0.3-0.4-0.4c0,0.1,0,0.2,0.1,0.4c0,0.2,0.1,0.4,0.1,0.6
		c0,0.8-0.3,1.3-0.5,1.5C787.1,32,787.3,32.2,787.5,32.6 M779.2,31.6c0.1,0.3,0.2,0.6,0.3,0.9c0,0.1,0.3,0.9,0.3,0.9
		c0,0,0.1-0.1,0.1-0.1l0,0c0.3-0.2,0.6-0.3,0.9-0.3c0.1,0,0.3,0,0.4,0.1c0.1-0.2,0.2-0.6,0.3-0.9c0.1-0.4,0.2-0.8,0.3-1
		c0-0.1,0-0.3,0-0.5c0-0.2,0-0.5-0.1-0.6c-0.1-0.2-0.2-0.3-0.5-0.3c-0.1,0-0.2,0-0.4,0.1c-0.5,0.1-1.2,0.3-1.5,0.7
		C779.1,31,779.1,31.3,779.2,31.6 M780.9,29.1c0.1,0,0.1,0,0.2,0c0.4,0,0.6,0.1,0.8,0.2c-0.1-0.9-0.4-1.4-0.8-1.7
		c-0.4-0.3-0.9-0.4-1.3-0.4c-0.1,0-0.2,0-0.2,0c0.1,0.1,0.2,0.1,0.3,0.2C780.7,28.1,780.9,28.7,780.9,29.1 M777.7,36.7
		c0-0.1,0-0.2,0-0.3c0-0.1-0.7-0.4-0.8-0.4c-0.3-0.1-0.6,0-0.9,0.2c-0.2,0.3-0.6,0.9-0.6,1.4c0,0.2,0.1,0.4,0.2,0.5
		c0.1,0.2,0.3,0.3,0.7,0.4c0.6,0.2,1.2,0.4,1.8,0.5c-0.2-0.7-0.3-1.4-0.3-2.1C777.7,37,777.7,36.9,777.7,36.7 M781.3,42.9
		c0.9,0.7,1.4,1,1.7,1c0.2,0,0.3-0.1,0.5-0.2c0.1-0.1,0.2-0.3,0.4-0.5c0.1-0.2,0.2-0.4,0.2-0.6c0-0.4-0.2-0.9-0.3-1.1v0
		c-0.1-0.2-2.2-4.9-2.7-6.7c-0.1-0.2-0.1-0.6-0.1-0.7l-0.1-0.1c0,0-0.1,0-0.1,0c-0.1,0-0.4,0.1-0.6,0.2c-1.3,0.8-1.7,1.9-1.7,3.1
		C778.5,39.4,780.2,42,781.3,42.9 M779.5,65.2c-0.2,0.4-0.3,0.9-0.3,1.2c0,0,0,0.1,0,0.1c0-0.1,0.1-0.1,0.1-0.2
		c0.4-0.7,0.9-1.1,1.4-1.2c-0.1-0.3-0.1-0.6-0.2-0.9C780,64.5,779.7,64.8,779.5,65.2 M776,33.3c-0.1,0.1-0.1,0.1-0.1,0.1v0v0l0,0
		l0,0.1c0,0.1-0.1,0.2-0.1,0.3c0,0.2,0.1,0.4,0.4,0.6c0.4,0.2,1.2,0.7,1.8,1.1c0.2-0.6,0.6-1.1,1-1.6l-1-1.8h0l0,0l0,0l-0.1-0.1
		c-0.1-0.1-0.2-0.2-0.3-0.2c-0.1,0-0.3,0-0.5,0.2C776.5,32.4,776.1,33,776,33.3 M775.5,35.7c-0.4-0.1-0.7-0.2-1-0.2
		c-0.8,0-1.2,0.3-1.5,0.7c-0.2,0.3-0.3,0.6-0.4,0.8c0.1-0.1,0.2-0.1,0.3-0.2c0.5-0.3,1-0.4,1.4-0.4c0.3,0,0.5,0,0.6,0.1
		C775.1,36.1,775.4,35.8,775.5,35.7C775.5,35.7,775.5,35.7,775.5,35.7 M774,31.4c-0.1,0-0.3,0-0.4,0.1c0.1-0.1,0.2-0.3,0.4-0.4
		c0.3-0.3,0.7-0.5,1.2-0.5c0.4,0,1,0.2,1.6,0.6c-0.1,0.1-0.2,0.1-0.3,0.2c-0.2,0.1-0.4,0.3-0.5,0.5c-0.2-0.2-0.7-0.5-1.5-0.5
		C774.5,31.3,774.3,31.4,774,31.4"/>
	<path class="st2" d="M853.8,141.9c-4.9,3.2-22.1,1.3-23.9,9.3v18.7c6.8-8,24.8-7.2,29.7-10.4L853.8,141.9z M804.9,141.9l-5.8,17.5
		c4.9,3.2,23,2.4,29.7,10.4v-18.7C826.9,143.2,809.8,145.1,804.9,141.9 M809.2,166.8c-2.9,0.1-5.8,0.2-11.5-1c-0.2,1-0.4,2-0.5,3.1
		c5.6,0.5,8.4,0.1,11.1-0.3c2.9-0.4,5.8-0.9,11.8-0.2c2.4,0.3,4.1,0.6,5.5,0.9c-1.2-0.4-2.8-0.9-4.9-1.4
		C815,166.6,812.2,166.7,809.2,166.8 M834.4,168.1c1.1-0.4,2.5-0.9,4.2-1.3c5.6-1.5,8.5-1.4,11.3-1.3c2.7,0.1,5.5,0.2,10.9-1.2
		c-0.2-1.1-0.4-2.2-0.7-3.3l0,0c-2.1,1.2-5.6,1.8-9.7,2.5C845.1,164.4,838.8,165.5,834.4,168.1 M861,165.8c-5.7,1.2-8.7,1.1-11.5,1
		c-3-0.1-5.8-0.2-11.5,1.1c-2.1,0.5-3.7,0.9-4.9,1.4c1.4-0.3,3.1-0.6,5.5-0.9c6-0.6,9-0.2,11.8,0.2c2.7,0.4,5.6,0.8,11.1,0.3
		C861.4,167.8,861.2,166.8,861,165.8 M798,164.3c0.2-1.1,0.4-2.2,0.7-3.3v0c2.1,1.2,5.6,1.8,9.7,2.5c5.3,0.9,11.6,2.1,16,4.7
		c-1.1-0.4-2.5-0.9-4.2-1.3c-5.6-1.5-8.5-1.4-11.3-1.3C806.2,165.6,803.4,165.7,798,164.3"/>
	<path class="st2" d="M773.7,95.1l0.8,1.4c0.3,0.6,0.9,0.9,1.6,0.9h0c-0.4,0.7-0.6,1.6-0.7,2.8c0,0.2,0,0.4,0,0.7
		c0,0.6,0,1.5-0.2,1.8c-0.1,0.2-0.3,0.3-0.4,0.5c-0.4,0.4-1,1.1-0.7,2.1l0,0v0c0.3,1,1.2,1.2,1.8,1.3c0.2,0.1,0.5,0.1,0.6,0.2
		c0.4,0.2,0.9,0.9,1.3,1.4c0.1,0.2,0.3,0.4,0.4,0.5c0.8,1,1.7,1.7,2.6,2.1c-0.7,0.4-1.1,1.2-0.9,2l0.3,1.6c0.2,0.8,0.9,1.4,1.8,1.4
		c0.1,0,0.3,0,0.4,0l1.6-0.3c0.7-0.1,1.2-0.6,1.3-1.3c0.6,0.6,1.4,1.1,2.5,1.5c0.2,0.1,0.4,0.1,0.6,0.2c0.6,0.2,1.4,0.4,1.7,0.8
		c0.1,0.1,0.2,0.4,0.4,0.6c0.3,0.5,0.8,1.3,1.8,1.3l0,0v0c1,0,1.5-0.8,1.8-1.3c0.1-0.2,0.2-0.4,0.4-0.6c0.3-0.3,1.1-0.6,1.7-0.8
		c0.2-0.1,0.4-0.1,0.6-0.2c1.2-0.4,2.2-1.1,2.8-1.8c0.1,0.3,0.2,0.6,0.4,0.8c0.3,0.4,0.7,0.6,1.2,0.7l1.6,0.2c0.1,0,0.1,0,0.2,0
		c0.9,0,1.7-0.7,1.8-1.6l0.2-1.6c0.1-0.5-0.1-1-0.4-1.3c-0.1-0.1-0.2-0.2-0.4-0.3c0.8-0.4,1.5-1,2.2-1.9c0.1-0.2,0.3-0.4,0.4-0.6
		c0.3-0.5,0.9-1.2,1.3-1.4c0.2-0.1,0.4-0.1,0.6-0.2c0.6-0.1,1.5-0.3,1.8-1.3l0,0v0l0,0c0.3-1-0.3-1.7-0.7-2.1
		c-0.2-0.2-0.3-0.4-0.4-0.5c-0.2-0.4-0.2-1.3-0.2-1.8c0-0.2,0-0.5,0-0.7c-0.1-1.4-0.4-2.4-0.9-3.2c0.1,0,0.1,0,0.2,0
		c0.7,0,1.4-0.4,1.7-1.1l0.6-1.5c0.2-0.4,0.2-0.9,0-1.4c-0.2-0.4-0.5-0.8-1-1l-1.5-0.6c-0.2-0.1-0.5-0.1-0.7-0.1
		c-0.4,0-0.8,0.1-1.1,0.4c-0.1-0.9-0.5-1.8-1.1-2.7c-0.1-0.2-0.3-0.4-0.4-0.6c-0.4-0.5-0.9-1.2-0.9-1.6c0-0.2,0-0.4,0-0.7
		c0.1-0.6,0.2-1.5-0.7-2.1l-0.1,0.2h0l0.1-0.2c-0.3-0.2-0.6-0.3-1-0.3c-0.5,0-0.9,0.2-1.2,0.3c-0.2,0.1-0.4,0.2-0.6,0.2
		c-0.1,0-0.1,0-0.2,0c-0.5,0-1.1-0.2-1.6-0.4c-0.2-0.1-0.4-0.1-0.7-0.2c-0.7-0.2-1.4-0.3-2.1-0.3c-0.4,0-0.8,0-1.3,0.2
		c0.1-0.3,0.2-0.6,0.2-0.9c0-0.5-0.2-0.9-0.6-1.2l-1.2-1.1c-0.3-0.3-0.8-0.5-1.2-0.5c-0.5,0-1,0.2-1.3,0.6l-1.1,1.2
		c-0.5,0.5-0.6,1.2-0.4,1.8c-0.3-0.1-0.6-0.1-0.9-0.1c-0.6,0-1.3,0.1-2.1,0.3c-0.2,0.1-0.4,0.1-0.6,0.2c-0.5,0.2-1.2,0.4-1.6,0.4
		c-0.1,0-0.1,0-0.2,0c-0.2,0-0.4-0.1-0.6-0.2c-0.4-0.2-0.8-0.3-1.2-0.3c-0.4,0-0.7,0.1-1,0.3h0l0,0c-0.8,0.6-0.7,1.5-0.7,2.1
		c0,0.2,0.1,0.5,0,0.7c0,0.4-0.6,1.1-0.9,1.6c-0.1,0.2-0.3,0.4-0.4,0.6c-0.7,1.1-1.1,2.1-1.2,3.1c-0.3-0.3-0.8-0.5-1.3-0.5
		c-0.3,0-0.6,0.1-0.9,0.2l-1.4,0.8c-0.4,0.2-0.7,0.6-0.8,1.1C773.4,94.1,773.4,94.6,773.7,95.1"/>
	<path class="st2" d="M792.1,91.5c1.8,0,3.3,1.3,3.6,3c0.2,0,0.3,0,0.5,0c1.6,0,3,1,3.5,2.6c0.6,1.7-0.2,3.5-1.7,4.4
		c0.3,0.7,0.4,1.4,0.3,2.2c-0.2,1-0.7,1.8-1.5,2.4c-0.6,0.5-1.4,0.7-2.2,0.7c-0.9,0-1.8-0.4-2.5-1c-0.7,0.7-1.6,1-2.6,1
		c-0.8,0-1.5-0.2-2.2-0.7c-1.5-1.1-1.9-3-1.2-4.5c-0.7-0.4-1.2-0.9-1.5-1.6c-0.4-0.9-0.5-1.9-0.2-2.8c0.5-1.5,1.9-2.6,3.5-2.6
		c0.1,0,0.3,0,0.4,0c0.1-0.7,0.5-1.4,1-2C790.2,91.9,791.1,91.5,792.1,91.5"/>
	<path class="st1" d="M798.3,108.8c1.5,2.9,0.6,4.6-2,5.5c-0.8,0.3-2.2,0.6-2.9,1.4c-0.5,0.6-0.7,1.4-1.1,1.4
		c-0.4,0-0.6-0.8-1.1-1.4c-0.7-0.8-2.1-1.1-2.9-1.4c-2.6-0.9-3.6-2.6-2-5.5c0.3-0.6,0.8-1.6,1.5-2.5c0.6,0.3,1.2,0.5,1.9,0.5
		c1,0,1.9-0.4,2.6-1c0.7,0.6,1.6,1,2.5,1c0.7,0,1.4-0.2,2-0.6C797.5,107.1,798,108.2,798.3,108.8 M803.1,111.7l-1.9-0.6
		c-0.2,0-0.4,0.1-0.4,0.4l0.2,2c0,0.2,0.1,0.4,0.4,0.4l1.6,0.2c0.2,0,0.4-0.1,0.4-0.4l0.2-1.6C803.5,111.9,803.3,111.7,803.1,111.7
		 M786.3,101.5c-0.7-0.4-1.2-0.9-1.5-1.6c-0.4-0.8-0.5-1.8-0.3-2.6c-1.2-0.4-2.3-0.6-3-0.7c-3.2-0.5-4.5,0.9-4.6,3.7
		c0,0.8,0.1,2.3-0.4,3.2c-0.4,0.7-1.1,1.1-1,1.5v0c0.1,0.3,1,0.3,1.7,0.6c1,0.4,1.7,1.7,2.2,2.3c1.7,2.2,3.6,2.6,5.9,0.2
		c0.5-0.5,1.3-1.3,2-2.3C786,104.7,785.7,103,786.3,101.5 M807.7,100.2c-0.1-2.8-1.4-4.2-4.6-3.7c-0.7,0.1-1.9,0.3-3.2,0.8
		c0.4,1.6-0.4,3.3-1.8,4.1c0.3,0.7,0.4,1.4,0.3,2.2c-0.1,0.8-0.5,1.6-1.1,2.1c0.7,1,1.5,1.8,2,2.3c2.3,2.3,4.2,1.9,5.9-0.2
		c0.5-0.6,1.2-1.9,2.2-2.3c0.7-0.3,1.6-0.3,1.7-0.6c0.1-0.3-0.6-0.8-1-1.5C807.5,102.5,807.7,101,807.7,100.2 M783.9,111.5
		c0-0.2-0.3-0.4-0.5-0.3l-1.8,0.8c-0.2,0.1-0.4,0.3-0.3,0.5l0.3,1.6c0,0.2,0.3,0.4,0.5,0.3l1.6-0.3c0.2,0,0.4-0.3,0.3-0.5
		L783.9,111.5z M806.3,95l1.9,0.5c0.2,0.1,0.4,0,0.5-0.2l0.6-1.5c0.1-0.2,0-0.4-0.2-0.5l-1.5-0.6c-0.2-0.1-0.4,0-0.5,0.2l-1.1,1.7
		C806,94.7,806.1,95,806.3,95 M774.9,94.4l0.8,1.4c0.1,0.2,0.4,0.3,0.6,0.1l1.9-0.7c0.2-0.1,0.3-0.4,0.1-0.6l-1.3-1.5
		c-0.1-0.2-0.4-0.3-0.6-0.1l-1.4,0.8C774.8,93.9,774.8,94.2,774.9,94.4 M781.8,95.4c0.7,0.3,1.7,0.9,2.9,1.2c0.6-1.2,1.9-2,3.3-2
		c0.1,0,0.3,0,0.4,0c0.1-0.7,0.5-1.4,1-2c0.6-0.6,1.4-1,2.3-1.1c0.1-1.3-0.1-2.5-0.2-3.3c-0.5-3.2-2.3-4-4.9-3.3
		c-0.8,0.2-2.1,0.8-3.1,0.6c-0.8-0.2-1.4-0.7-1.7-0.5c-0.3,0.2,0,1-0.1,1.8c-0.1,1.1-1.1,2.1-1.6,2.8
		C778.7,92,778.9,93.9,781.8,95.4 M791.9,84.7c0.2,0.1,0.4,0.1,0.6,0l1-1.7c0.1-0.2,0.1-0.4,0-0.6l-1.2-1.1c-0.2-0.1-0.4-0.1-0.6,0
		l-1.1,1.2c-0.1,0.2-0.1,0.4,0,0.6L791.9,84.7z M792.6,91.6c1.6,0.2,2.8,1.4,3.2,2.9c0.2,0,0.3,0,0.5,0c1.5,0,2.7,0.8,3.4,2.1
		c1.2-0.3,2.3-0.9,3-1.2c2.9-1.5,3.1-3.4,1.6-5.7c-0.5-0.7-1.4-1.8-1.6-2.8c-0.1-0.8,0.2-1.6-0.1-1.8h0c-0.3-0.2-0.9,0.3-1.7,0.5
		c-1,0.2-2.4-0.4-3.1-0.6c-2.7-0.8-4.4,0.1-4.9,3.3C792.7,89,792.5,90.2,792.6,91.6"/>
	<path class="st1" d="M787.4,100.5c0.2,0.1,0.4,0.1,0.6,0.1c0,0,0,0,0,0c0.1,0,0.2,0.1,0.3,0.2c0.1,0.2,0.1,0.4-0.1,0.6
		c-0.1,0.1-0.3,0.3-0.4,0.4c-0.8,1-0.5,2.5,0.5,3.2c1,0.8,2.5,0.5,3.2-0.5c0.1-0.2,0.2-0.4,0.3-0.5h0c0-0.1,0.1-0.2,0.2-0.2
		c0.2-0.1,0.4,0,0.5,0.2c0.1,0.2,0.2,0.3,0.3,0.5c0.8,1,2.2,1.3,3.2,0.5c1-0.7,1.3-2.2,0.5-3.2c-0.1-0.2-0.3-0.3-0.4-0.4
		c-0.1-0.1-0.1-0.2-0.1-0.3c0-0.2,0.2-0.4,0.4-0.4c0,0,0,0,0,0c0.2,0,0.4,0,0.6-0.1c1.2-0.4,1.9-1.7,1.5-2.9
		c-0.4-1.2-1.7-1.9-2.9-1.5c-0.2,0.1-0.4,0.2-0.6,0.3h0c-0.1,0.1-0.2,0.1-0.3,0c-0.2-0.1-0.3-0.3-0.3-0.5c0-0.2,0.1-0.4,0.1-0.6
		c0-1.3-1-2.3-2.3-2.3c-1.3,0-2.3,1-2.3,2.3c0,0.2,0,0.4,0.1,0.6c0,0.1,0,0.2-0.1,0.3c-0.1,0.2-0.4,0.2-0.5,0.1v0
		c-0.2-0.1-0.3-0.2-0.5-0.2c-1.2-0.4-2.5,0.3-2.9,1.5C785.5,98.8,786.1,100.1,787.4,100.5"/>
	<path class="st2" d="M790.2,99.5c0-1,0.8-1.8,1.8-1.8c1,0,1.8,0.8,1.8,1.8c0,1-0.8,1.8-1.8,1.8C791,101.3,790.2,100.5,790.2,99.5"
		/>
	<path class="st2" d="M885,95.1l-0.8,1.4c-0.3,0.6-0.9,0.9-1.6,0.9h0c0.4,0.7,0.6,1.6,0.7,2.8c0,0.2,0,0.4,0,0.7
		c0,0.6,0,1.5,0.2,1.8c0.1,0.2,0.3,0.3,0.4,0.5c0.4,0.4,1,1.1,0.7,2.1l0,0v0c-0.3,1-1.2,1.2-1.8,1.3c-0.2,0.1-0.5,0.1-0.6,0.2
		c-0.4,0.2-0.9,0.9-1.3,1.4c-0.1,0.2-0.3,0.4-0.4,0.5c-0.8,1-1.7,1.7-2.6,2.1c0.7,0.4,1.1,1.2,0.9,2l-0.3,1.6
		c-0.2,0.8-0.9,1.4-1.8,1.4c-0.1,0-0.3,0-0.4,0l-1.6-0.3c-0.7-0.1-1.2-0.6-1.4-1.3c-0.6,0.6-1.4,1.1-2.5,1.5
		c-0.2,0.1-0.4,0.1-0.6,0.2c-0.6,0.2-1.4,0.4-1.7,0.8c-0.1,0.1-0.2,0.4-0.4,0.6c-0.3,0.5-0.8,1.3-1.8,1.3h0l0,0v0
		c-1,0-1.5-0.8-1.8-1.3c-0.1-0.2-0.2-0.4-0.4-0.6c-0.3-0.3-1.1-0.6-1.7-0.8c-0.2-0.1-0.4-0.1-0.6-0.2c-1.2-0.4-2.2-1.1-2.8-1.8
		c-0.1,0.3-0.2,0.6-0.4,0.8c-0.3,0.4-0.7,0.6-1.2,0.7l-1.6,0.2c-0.1,0-0.1,0-0.2,0c-0.9,0-1.7-0.7-1.8-1.6l-0.2-1.6
		c-0.1-0.5,0.1-1,0.4-1.3c0.1-0.1,0.2-0.2,0.4-0.3c-0.8-0.4-1.5-1-2.2-1.9c-0.1-0.2-0.3-0.4-0.4-0.6c-0.3-0.5-0.8-1.2-1.3-1.4
		c-0.2-0.1-0.4-0.1-0.6-0.2c-0.6-0.1-1.5-0.3-1.8-1.3l0,0v0l0,0c-0.3-1,0.3-1.7,0.7-2.1c0.2-0.2,0.3-0.4,0.4-0.5
		c0.2-0.4,0.2-1.3,0.2-1.8c0-0.2,0-0.5,0-0.7c0.1-1.4,0.4-2.4,0.9-3.2c-0.1,0-0.1,0-0.2,0c-0.7,0-1.4-0.4-1.7-1.1l-0.6-1.5
		c-0.2-0.4-0.2-0.9,0-1.4c0.2-0.4,0.5-0.8,1-1l1.5-0.6c0.2-0.1,0.5-0.1,0.7-0.1c0.4,0,0.8,0.1,1.1,0.4c0.1-0.9,0.5-1.8,1.1-2.7
		c0.1-0.2,0.3-0.4,0.4-0.6c0.4-0.5,0.9-1.2,0.9-1.6c0-0.2,0-0.4,0-0.7c-0.1-0.6-0.2-1.5,0.7-2.1l0.1,0.2h0l-0.1-0.2
		c0.3-0.2,0.6-0.3,1-0.3c0.5,0,0.8,0.2,1.2,0.3c0.2,0.1,0.4,0.2,0.6,0.2c0.1,0,0.1,0,0.2,0c0.5,0,1.1-0.2,1.6-0.4
		c0.2-0.1,0.4-0.1,0.7-0.2c0.7-0.2,1.4-0.3,2-0.3c0.4,0,0.8,0,1.3,0.2c-0.1-0.3-0.2-0.6-0.2-0.9c0-0.5,0.2-0.9,0.6-1.2l1.2-1.1
		c0.3-0.3,0.8-0.5,1.2-0.5c0.5,0,1,0.2,1.4,0.6l1.1,1.2c0.5,0.5,0.6,1.2,0.4,1.8c0.3-0.1,0.6-0.1,0.9-0.1c0.6,0,1.3,0.1,2.1,0.3
		c0.2,0.1,0.4,0.1,0.6,0.2c0.5,0.2,1.2,0.4,1.6,0.4c0.1,0,0.1,0,0.2,0c0.2,0,0.4-0.1,0.6-0.2c0.4-0.2,0.8-0.3,1.2-0.3
		c0.4,0,0.7,0.1,1,0.3h0l0,0c0.8,0.6,0.7,1.5,0.7,2.1c0,0.2-0.1,0.5,0,0.7c0,0.4,0.6,1.1,0.9,1.6c0.1,0.2,0.3,0.4,0.4,0.6
		c0.7,1.1,1.1,2.1,1.2,3.1c0.3-0.3,0.8-0.5,1.2-0.5c0.3,0,0.6,0.1,0.9,0.2l1.4,0.8c0.4,0.2,0.7,0.6,0.8,1.1
		C885.3,94.1,885.2,94.6,885,95.1"/>
	<path class="st2" d="M866.5,91.5c-1.8,0-3.3,1.3-3.6,3c-0.2,0-0.3,0-0.5,0c-1.6,0-3,1-3.5,2.6c-0.6,1.7,0.2,3.5,1.7,4.4
		c-0.3,0.7-0.4,1.4-0.3,2.2c0.2,1,0.7,1.8,1.5,2.4c0.6,0.5,1.4,0.7,2.2,0.7c0.9,0,1.8-0.4,2.5-1c0.7,0.7,1.6,1,2.6,1
		c0.8,0,1.5-0.2,2.2-0.7c1.4-1.1,1.9-3,1.2-4.5c0.7-0.4,1.2-0.9,1.5-1.6c0.4-0.9,0.5-1.9,0.2-2.8c-0.5-1.5-1.9-2.6-3.5-2.6
		c-0.1,0-0.3,0-0.4,0c-0.1-0.7-0.5-1.4-1-2C868.4,91.9,867.5,91.5,866.5,91.5"/>
	<path class="st1" d="M860.3,108.8c0.3-0.6,0.8-1.7,1.6-2.6c0.6,0.4,1.3,0.6,2,0.6c0.9,0,1.8-0.4,2.5-1c0.7,0.7,1.6,1,2.6,1
		c0.7,0,1.3-0.2,1.9-0.5c0.7,0.9,1.2,1.9,1.5,2.5c1.5,2.9,0.6,4.6-2,5.5c-0.8,0.3-2.2,0.6-2.9,1.4c-0.5,0.6-0.7,1.4-1.1,1.4
		c-0.3,0-0.6-0.8-1.1-1.4c-0.7-0.8-2.1-1.1-2.9-1.4C859.8,113.4,858.8,111.7,860.3,108.8 M855.5,111.7c-0.2,0-0.4,0.2-0.4,0.4
		l0.2,1.6c0,0.2,0.2,0.4,0.4,0.4l1.6-0.2c0.2,0,0.4-0.2,0.4-0.4l0.2-2c0-0.2-0.2-0.4-0.4-0.4L855.5,111.7 M872.3,101.5
		c0.7,1.4,0.3,3.2-0.9,4.3c0.7,1,1.5,1.8,2,2.3c2.3,2.3,4.2,1.9,5.9-0.2c0.5-0.6,1.2-1.9,2.2-2.3c0.7-0.3,1.6-0.3,1.7-0.6v0
		c0.1-0.3-0.6-0.8-1-1.5c-0.5-0.9-0.4-2.4-0.4-3.2c-0.1-2.8-1.4-4.2-4.6-3.7c-0.7,0.1-1.8,0.3-3,0.7c0.2,0.9,0.1,1.8-0.3,2.6
		C873.5,100.6,873,101.2,872.3,101.5 M851,100.2c0,0.8,0.1,2.3-0.4,3.2c-0.4,0.7-1.1,1.1-1,1.5c0.1,0.3,1,0.3,1.7,0.6
		c1,0.4,1.7,1.7,2.2,2.3c1.7,2.2,3.6,2.6,5.9,0.2c0.5-0.5,1.3-1.3,2-2.3c-0.6-0.6-1-1.3-1.1-2.1c-0.1-0.8,0-1.5,0.3-2.2
		c-1.4-0.8-2.2-2.5-1.8-4.1c-1.2-0.5-2.4-0.7-3.2-0.8C852.4,96,851.1,97.4,851,100.2 M874.7,113.5c0,0.2,0.1,0.4,0.3,0.5l1.6,0.3
		c0.2,0,0.4-0.1,0.5-0.3l0.3-1.6c0-0.2-0.1-0.4-0.3-0.5l-1.8-0.8c-0.2,0-0.4,0.1-0.5,0.3L874.7,113.5z M852.3,95
		c0.2-0.1,0.3-0.3,0.2-0.5l-1.1-1.7c-0.1-0.2-0.3-0.3-0.5-0.2l-1.5,0.6c-0.2,0.1-0.3,0.3-0.2,0.5l0.6,1.5c0.1,0.2,0.3,0.3,0.5,0.2
		L852.3,95 M883.8,94.4c0.1-0.2,0-0.4-0.1-0.6l-1.4-0.8c-0.2-0.1-0.4,0-0.6,0.1l-1.3,1.5c-0.1,0.2,0,0.4,0.1,0.6l1.9,0.7
		c0.2,0.1,0.4,0,0.6-0.1L883.8,94.4 M876.8,95.4c2.9-1.5,3.1-3.4,1.6-5.7c-0.5-0.7-1.4-1.8-1.6-2.8c-0.1-0.8,0.2-1.6-0.1-1.8
		c-0.3-0.2-0.9,0.3-1.7,0.5c-1,0.2-2.4-0.4-3.1-0.6c-2.7-0.8-4.4,0.1-4.9,3.3c-0.1,0.7-0.3,2-0.2,3.3c0.9,0.1,1.7,0.4,2.3,1.1
		c0.5,0.5,0.9,1.2,1,2c0.1,0,0.3,0,0.4,0c1.4,0,2.7,0.8,3.3,2C875.1,96.3,876.2,95.7,876.8,95.4 M868,83.1c0.2-0.1,0.2-0.4,0-0.6
		l-1.1-1.2c-0.1-0.2-0.4-0.2-0.6,0l-1.2,1.1c-0.2,0.1-0.2,0.4,0,0.6l1,1.7c0.1,0.2,0.4,0.2,0.6,0L868,83.1z M866,91.6
		c0.1-1.3-0.1-2.6-0.2-3.3c-0.5-3.2-2.3-4-4.9-3.3c-0.8,0.2-2.1,0.8-3.1,0.6c-0.8-0.2-1.4-0.7-1.7-0.5h0c-0.3,0.2,0,1-0.1,1.8
		c-0.1,1.1-1.1,2.1-1.6,2.8c-1.5,2.3-1.3,4.2,1.6,5.7c0.7,0.3,1.8,0.9,3,1.2c0.6-1.3,1.9-2.1,3.4-2.1c0.2,0,0.3,0,0.5,0
		C863.2,93,864.5,91.8,866,91.6"/>
	<path class="st1" d="M871.3,100.5c-0.2,0.1-0.4,0.1-0.6,0.1c0,0,0,0,0,0c-0.1,0-0.2,0.1-0.3,0.2c-0.1,0.2-0.1,0.4,0.1,0.6
		c0.1,0.1,0.3,0.3,0.4,0.4c0.8,1,0.5,2.5-0.5,3.2c-1,0.8-2.5,0.5-3.2-0.5c-0.1-0.2-0.2-0.4-0.3-0.5h0c0-0.1-0.1-0.2-0.2-0.2
		c-0.2-0.1-0.4,0-0.5,0.2c-0.1,0.2-0.2,0.3-0.3,0.5c-0.8,1-2.2,1.3-3.2,0.5c-1-0.7-1.3-2.2-0.5-3.2c0.1-0.2,0.3-0.3,0.4-0.4
		c0.1-0.1,0.1-0.2,0.1-0.3c0-0.2-0.2-0.4-0.4-0.4c0,0,0,0,0,0c-0.2,0-0.4,0-0.6-0.1c-1.2-0.4-1.9-1.7-1.5-2.9
		c0.4-1.2,1.7-1.9,2.9-1.5c0.2,0.1,0.4,0.2,0.6,0.3h0c0.1,0.1,0.2,0.1,0.3,0c0.2-0.1,0.3-0.3,0.3-0.5c0-0.2-0.1-0.4-0.1-0.6
		c0-1.3,1-2.3,2.3-2.3c1.3,0,2.3,1,2.3,2.3c0,0.2,0,0.4-0.1,0.6c0,0.1,0,0.2,0.1,0.3c0.1,0.2,0.4,0.2,0.5,0.1v0
		c0.2-0.1,0.3-0.2,0.5-0.2c1.2-0.4,2.5,0.3,2.9,1.5C873.2,98.8,872.5,100.1,871.3,100.5"/>
	<path class="st2" d="M868.4,99.5c0-1-0.8-1.8-1.8-1.8c-1,0-1.8,0.8-1.8,1.8c0,1,0.8,1.8,1.8,1.8
		C867.6,101.3,868.4,100.5,868.4,99.5"/>
	<path class="st3" d="M418.9,59c0,0-8.8,0.3-14.8,2.9c-4.5,2-7,5.4-6.8,9.6c0.1,2.5,2.8,6.7,9.2,6.3c6.3-0.4,12.4-5.9,12.4-5.9V59z
		 M419,55.8l0-8.8c0-6.7-7.2-6.9-10.2-6.9c-2.5,0-7.2,0.1-9.4,3c-1.2,1.5-0.8,4.2-0.8,5.5c0.1,2.7-1.7,4.7-4.3,4.7
		c-2.6,0-4.6-2.1-4.6-4.7c0-5.3,4.9-8.3,4.9-8.3c3.7-2.5,10-3.8,15.3-3.8c5.5,0,10.1,1.1,14.2,4.2c2.1,1.6,3.7,4.3,3.7,9.8v25.9
		l8.3,2.3v2.9h-11.9L419,76c0,0-7.5,6.3-16.9,6.3c-9.5,0-13.8-5.1-13.8-9.8c0,0-1.5-9.7,12.4-13.9c2.6-0.8,5-1.3,7-1.6
		C415.3,55.6,419,55.8,419,55.8 M613,120.5c-6.3-1.2-11.4-2.9-11.4-7.1c0-5.1,6.1-5.5,8.6-5.4c11.6,0.4,14.8,10.2,14.8,10.2h2.6
		l-2.6-12.9h-2.3l-0.8,2.8c-2-1.4-6.3-3.7-11.4-3.7c-10.3,0-16.2,6-16.2,12.5c0,6.6,8.4,9.3,14.7,11.1c6.1,1.8,14.4,2.1,14.4,8.2
		c0,7.4-10.1,7.3-10.1,7.3c-13.7,0-17.3-12.2-17.3-12.2h-2.9l2.7,15h2.7l1-3.4c0,0,6.8,4,14,4c10.3,0,17.2-6.7,17.2-13.8
		C630.9,123.4,619.6,121.7,613,120.5 M573.2,59c0,0-8.8,0.3-14.8,2.9c-4.5,2-7,5.4-6.8,9.6c0.1,2.5,2.8,6.7,9.2,6.3
		c6.3-0.4,12.4-5.9,12.4-5.9V59z M573.3,55.8l0-8.8c0-6.7-7.2-6.9-10.2-6.9c-2.5,0-7.2,0.1-9.4,3c-1.2,1.5-0.8,4.2-0.8,5.5
		c0.1,2.7-1.7,4.7-4.3,4.7c-2.6,0-4.6-2.1-4.6-4.7c0-5.3,4.9-8.3,4.9-8.3c3.7-2.5,10-3.8,15.3-3.8c5.5,0,10.1,1.1,14.2,4.2
		c2.1,1.6,3.7,4.3,3.7,9.8v25.9l8.8,2.4l0.5,2.8h-13l-5.3-5.7c0,0-7.5,6.3-16.9,6.3c-9.5,0-13.8-5.1-13.8-9.8c0,0-1.6-9.7,12.4-13.9
		c2.6-0.8,5-1.3,7-1.6C569.6,55.6,573.3,55.8,573.3,55.8 M639.7,96.1c0,2.8,2.3,5.1,5.1,5.1c2.8,0,5.1-2.3,5.1-5.1
		c0-2.8-2.3-5.1-5.1-5.1C642,91,639.7,93.3,639.7,96.1 M648.6,105.4l-15.1,1.6v3.4h7.1v31.1l-7.2,2.3v2.6h22.2v-2.6l-7-2.3V105.4z
		 M458.5,91c-2.8,0-5.1,2.3-5.1,5.1c0,2.8,2.3,5.1,5.1,5.1s5.1-2.3,5.1-5.1C463.6,93.3,461.3,91,458.5,91 M462,105.4l-15.1,1.6v3.4
		h7.1v31.1l-7.3,2.3l0,2.6H469v-2.6l-7-2.3V105.4z M588.4,104.9L588.4,104.9c0,0-0.1,0-0.1,0c0,0-0.1,0-0.1,0
		c-8.5-1.9-15.2,5.2-16.6,6.8v-6.2h-3.4l-12.2,3.3v2.5h7.3V142l-7.1,1.9v2.5h22.9v-2.5l-7.6-2v-26.4c0.5-0.5,4.4-4.6,7.6-4.6
		c3.8,0,3.9,2.4,7.6,2.8c0,0,0,0,0.1,0h0c0.1,0,0.3,0,0.4,0c2.5,0,4.5-2,4.5-4.5C591.8,107.1,590.3,105.4,588.4,104.9 M742.6,36.6
		L742.6,36.6c0,0-0.1,0-0.1,0c0,0-0.1,0-0.1,0c-9.3-2.1-16.5,5.6-18.1,7.4v-6.7h-3.7l-13.3,3.6v2.7h8V77l-7.7,2.1v2.6h24.9V79
		l-8.2-2.1V48.1c0.5-0.6,4.7-5,8.3-5c4.1,0,4.2,2.6,8.3,3c0,0,0.1,0,0.1,0c0,0,0,0,0,0v0c0.1,0,0.3,0,0.4,0c2.7,0,4.8-2.2,4.8-4.8
		C746.3,39.1,744.7,37.2,742.6,36.6 M523.5,118.4h20.6c-0.3-6.4-4.4-10.6-10.1-10.6C529.3,107.8,523.5,110.5,523.5,118.4 M523.2,122
		c0,0-3.1,21.3,13.7,21.3c0,0,8.8,0.4,13-7.7l2.6,1.3c-2.1,6-9.2,10.2-16.8,10.2c-11.6,0-21.3-9.5-21.3-21.2
		c0-7.1,2.8-13.6,8.1-17.5c3.5-2.5,7.5-3.7,12.1-3.7c10.1,0,17.7,6.9,18.3,17.3H523.2z M673.9,51.4h22.3c-0.4-6.9-4.7-11.5-11-11.5
		C680.2,39.8,673.9,42.8,673.9,51.4 M664.1,59.4c0-7.7,3.1-14.8,8.8-19c3.7-2.7,8.2-4,13.1-4c11,0,19.2,7.5,19.8,18.8h-32.3
		c0,0-3.4,23.1,14.8,23.1c0,0,9.5,0.4,14.1-8.3l2.8,1.3c-2.3,6.5-10,11-18.2,11C674.6,82.4,664.1,72.1,664.1,59.4 M640.3,67.3
		c0,2.2,0,4.2,0,5.5c0,6,5.8,9.4,12.3,9.4c7.7,0,11.2-3,13.4-5.3c-0.6-0.8-1.2-1.6-1.8-2.5c-2.5,2.1-4.8,4.1-8,4.1
		c-3.8,0-6.4-3-6.9-6.1c-0.2-1.3-0.1-3.7-0.1-5.9l0-26.4h13.1v-3h-13.1v-17h-4.2c0,0,0.2,7.5-3.5,12.9c-2.8,4.1-8.5,4.3-8.5,4.3v2.8
		h7.3V67.3z M675.6,143.6c-3.5,0-5.9-2.7-6.4-5.6c-0.2-1.2-0.1-3.5-0.1-5.4l0-24.6h12.1v-2.7h-12.1V89.7h-3.9c0,0,0.2,7-3.3,11.9
		c-2.6,3.8-7.9,4-7.9,4v2.6h6.7v25.1c0,2,0,3.9,0,5.1c0,5.5,5.4,8.7,11.4,8.7c7.8,0,10.9-3.4,13-5.6l-2.1-1.8
		C680.7,141.7,678.6,143.6,675.6,143.6 M613.7,53.8c-6.8-1.3-12.3-3.1-12.3-7.7c0-5.5,6.6-6,9.3-5.9c12.6,0.5,16,11,16,11h2.8
		l-2.8-13.9h-2.5l-0.9,3c-2.2-1.5-6.8-4-12.4-4c-11.1,0-17.5,6.4-17.5,13.6c0,7.1,9.1,10,16,12c6.7,1.9,15.6,2.3,15.6,8.9
		c0,8-10.9,7.9-10.9,7.9c-14.8,0-18.7-13.2-18.7-13.2h-3.1l2.9,16.3h3l1.1-3.7c0,0,7.4,4.4,15.2,4.4c11.1,0,18.6-7.2,18.6-15
		C633,57,620.8,55.1,613.7,53.8 M436.8,141.5v-25.9c0-2.9-1-5.5-3.2-7.4c-2.3-2-5.3-3-8.4-3.3c-5.4-0.6-10.7,1.3-15.2,4.2
		c-1.3,0.8-2.5,1.7-3.8,2.6v-6.1h-3l-12.4,3.3v2.5h7.3v30.3l-7,2.3v2.6h22.2v-2.6l-7.1-2.3v-25.8v0c2-1.5,4-2.9,6.2-4.1
		c2.8-1.4,6.3-3.1,9.5-2.7c1.6,0.2,3.5,1.4,4.4,2.7c1.5,2,1.9,4.7,1.9,7.1l0,22.7v0.2l-7,2.2v2.6h22.4v-2.6L436.8,141.5z
		 M428.4,141.4v0.2V141.4z M479.5,76.3v0.2V76.3z M446.6,76.4l-7.6,2.5v2.8h24.2v-2.8l-7.7-2.5V48.3v0c2.1-1.7,4.4-3.2,6.8-4.4
		c3-1.6,6.9-3.4,10.3-2.9c1.8,0.3,3.8,1.5,4.8,2.9c1.6,2.2,2.1,5.1,2.1,7.7l0,24.7c0-0.2,0,0.2,0,0.2l-7.6,2.4v2.8h24.4l0-2.8
		l-7.6-2.5V48.2c0-3.2-1.1-6-3.5-8.1c-2.6-2.2-5.8-3.3-9.1-3.6c-5.9-0.7-11.6,1.4-16.5,4.6c-1.4,0.9-2.8,1.9-4.1,2.9v-6.7h-3.2
		l-13.5,3.6v2.7h8V76.4z M386.2,62l-2.2-0.8l-0.4-0.1c-6.1,10.7-18.3,17.1-26.4,17.1c0,0-8.4,0.4-8.4-7.1h0V23.5l8.1-2.2l0.1-2.1
		h-25.4v2.4l7.6,2v52.9l-7.7,2.1v3h47.4L386.2,62z M714.5,107.8l7.3,2L711,138.5l-11.7-29l5.9-1.7v-2.5h-20v2.6l5.5,1.5l16.1,39.7
		c-1.1,1.9-2.1,3.9-3.1,5.9c-1.2,2.4-3.8,6.1-6.7,6.4c-2.7,0.2-3.4-3.1-5.6-4.2c-3.9-2.1-7.5,3-4.9,6.3c1.3,1.6,3.5,2.6,5.5,2.7
		c2.2,0.1,4.5-0.3,6.5-1.2c1.1-0.5,2.2-1.2,3.1-2c1.9-1.6,3.2-3.7,4.4-5.9c1.9-3.6,3.7-7.2,5.3-11c1.4-3.2,2.7-6.5,4.1-9.7
		c1.7-3.9,3.3-7.8,4.9-11.8c1.4-3.4,2.8-6.8,4.3-10.2c0.7-1.6,1.4-3.3,2.1-4.9c0,0,0-0.1,0.1-0.1l5.9-1.6v-2.6h-18.1V107.8z
		 M385.6,93.3L385.6,93.3C385.6,93.3,385.6,93.2,385.6,93.3l7.5-2.1v-2.9h-20.5V91l8.1,2.1v37.5c0,0,0.6,12.6-16,12.6
		c-16.6,0-16.6-10.9-16.6-12.6V93.2l8.3-2.3v-2.6h-24.8V91l8.1,2.1V130c0,0-1.4,17.5,23.6,17.5c23.7,0,22.3-16.5,22.3-16.5V93.3z
		 M515,105.4h-17.7v2.3l6.6,1.8l-10.6,29.4l-10.9-29.5l6.2-1.7v-2.6h-20.5v2.5l5.4,1.5l15,37.1h4.9l15.7-37l5.9-1.6V105.4z
		 M496.6,59.4c0-7.3,2.2-14,7.4-18.3c4-3.2,9.5-5,15-5c5.3,0,10,1.7,13.6,4.2c0,0,4.9,3,4.9,8.3c0,2.6-2.1,4.7-4.6,4.7
		c-2.6,0-4.4-2-4.3-4.7c0.1-1.3,0.2-3.5-0.5-5.1c-2.1-4.3-8.2-4.1-8.2-4.1c-8.9,0-12.8,8.9-12.8,19.8c0,14.5,8,19.8,14.8,19.8
		c0,0,7.7,0.1,14.3-8.5l2.7,1.8c-4.1,6.3-11.2,10.5-19.3,10.5C507,82.7,496.6,72.3,496.6,59.4"/>
	<path class="st2" d="M884.9,136c-3.4,0.9-7.5,1.6-13.3,1.6c-5.2,0-9-0.5-12.1-1.3c-2.4-0.6-4.4-1.3-6.4-2.1c-3-1.2-5.9-2.5-9.6-3.5
		c-3.7-1-8.2-1.7-14.2-1.7c-5.4,0-9.5,0.6-13,1.4c-2.6,0.6-4.8,1.4-6.8,2.3c-3.1,1.2-5.8,2.5-9.2,3.4c-3.4,0.9-7.5,1.6-13.3,1.6
		c-5.2,0-9-0.5-12.1-1.3c-2.2-0.5-4.1-1.2-6-2c0.7,1.6,1.4,3.1,2.2,4.7c0.5,0.2,1.1,0.3,1.6,0.5c3.7,1,8.2,1.7,14.3,1.7
		c5.4,0,9.5-0.6,13-1.4c2.6-0.6,4.8-1.4,6.8-2.2c3.1-1.2,5.8-2.5,9.2-3.4c3.4-0.9,7.5-1.6,13.3-1.6c5.2,0,9,0.5,12.1,1.3
		c2.4,0.6,4.4,1.3,6.4,2.1c3,1.2,5.9,2.5,9.6,3.5c3.7,1,8.2,1.7,14.2,1.7c5.4,0,9.5-0.6,13-1.4c1-0.3,2-0.5,2.9-0.8
		c0.8-1.6,1.5-3.1,2.2-4.7C888.2,134.9,886.6,135.5,884.9,136"/>
	<path class="st2" d="M871.6,130.2c-5.2,0-9-0.5-12.1-1.3c-2.4-0.6-4.4-1.3-6.4-2.1c-3-1.2-5.9-2.5-9.6-3.5c-3.7-1-8.2-1.7-14.2-1.7
		c-5.4,0-9.5,0.6-13,1.4c-2.6,0.6-4.8,1.4-6.8,2.2c-3.1,1.2-5.8,2.5-9.2,3.4c-3.4,0.9-7.5,1.6-13.3,1.6c-5.2,0-9-0.5-12.1-1.3
		c-2.4-0.6-4.4-1.3-6.4-2.1c-1-0.4-2.1-0.8-3.1-1.3c0.5,1.5,1.1,3.1,1.8,4.7c1.7,0.7,3.5,1.3,5.6,1.9c3.7,1,8.2,1.7,14.3,1.7
		c5.4,0,9.5-0.6,13-1.4c2.6-0.6,4.8-1.4,6.8-2.2c3.1-1.2,5.8-2.5,9.2-3.4c3.4-0.9,7.5-1.6,13.3-1.6c5.2,0,9,0.5,12.1,1.3
		c2.4,0.6,4.4,1.3,6.4,2.1c3,1.2,5.9,2.5,9.6,3.5c3.7,1,8.2,1.7,14.2,1.7c5.4,0,9.5-0.6,13-1.4c2.6-0.6,4.8-1.4,6.8-2.2
		c0.6-1.6,1.2-3.1,1.8-4.7c-2.7,1.1-5.3,2.2-8.3,3C881.5,129.5,877.4,130.2,871.6,130.2"/>
	<path class="st2" d="M764.3,122c2.6,1.1,5.3,2.2,8.6,3.1c3.7,1,8.2,1.7,14.2,1.7c5.4,0,9.5-0.6,13-1.4c2.6-0.6,4.8-1.4,6.8-2.3
		c3.1-1.2,5.8-2.5,9.2-3.4c3.4-0.9,7.5-1.6,13.3-1.6c5.2,0,9,0.5,12.1,1.3c2.4,0.6,4.4,1.3,6.4,2.1c3,1.2,5.9,2.5,9.6,3.5
		c3.7,1,8.2,1.7,14.2,1.7c5.4,0,9.5-0.6,13-1.4c2.6-0.6,4.8-1.4,6.8-2.3c1-0.4,2-0.8,3-1.2c0.5-1.5,0.9-3,1.3-4.5
		c-0.6,0.2-1.1,0.4-1.7,0.6c-3.1,1.2-5.8,2.5-9.2,3.4c-3.4,0.9-7.5,1.6-13.3,1.6c-5.2,0-9-0.5-12.1-1.3c-2.4-0.6-4.4-1.3-6.4-2.1
		c-3-1.2-5.9-2.5-9.6-3.5c-3.7-1-8.2-1.7-14.2-1.7c-5.4,0-9.5,0.6-13,1.4c-2.6,0.6-4.8,1.4-6.8,2.2c-3.1,1.2-5.8,2.5-9.2,3.4
		c-3.4,0.9-7.5,1.6-13.3,1.6c-5.2,0-9-0.5-12.1-1.3c-2.4-0.6-4.4-1.3-6.4-2.1c-1.8-0.7-3.7-1.5-5.7-2.3
		C763.4,119,763.8,120.4,764.3,122"/>
	<rect x="758.7" y="74.7" class="st2" width="141.3" height="1.8"/>
	<rect x="288.4" class="st4" width="2" height="165.5"/>
	<path class="st4" d="M18.7,53.7c4.8,0,8.3-1.1,10.7-3.2c2.3-2.1,3.5-5.2,3.5-9.3s-1.2-7.2-3.5-9.3c-2.3-2.1-5.9-3.2-10.7-3.2H4.1
		v25.1H18.7z M0,24.8h17.5c3.7,0,6.8,0.4,9.3,1.2c2.5,0.8,4.6,2,6.1,3.5c1.5,1.5,2.6,3.2,3.3,5.2c0.7,2,1,4.1,1,6.5
		c0,2.3-0.3,4.5-1,6.5c-0.7,2-1.8,3.7-3.3,5.2c-1.5,1.5-3.6,2.6-6.1,3.5c-2.5,0.8-5.6,1.2-9.3,1.2H4.1v24.1H0V24.8z"/>
	<path class="st4" d="M45.4,24.8h3.8v25.5c0.5-0.9,1.1-1.8,1.9-2.9c0.8-1.1,1.9-2,3.1-2.9c1.3-0.9,2.7-1.6,4.3-2.2
		c1.6-0.6,3.5-0.9,5.7-0.9c2.8,0,5.1,0.4,7,1.2c1.9,0.8,3.5,1.9,4.6,3.5c1.2,1.5,2,3.3,2.6,5.5c0.5,2.1,0.8,4.5,0.8,7.1v23h-3.8
		V59.9c0-2.9-0.3-5.3-0.8-7.2c-0.5-1.9-1.3-3.5-2.3-4.6c-1-1.1-2.2-1.9-3.7-2.4c-1.5-0.5-3.1-0.7-5-0.7c-2.5,0-4.7,0.5-6.5,1.5
		c-1.8,1-3.3,2.3-4.5,3.9c-1.2,1.6-2.1,3.4-2.7,5.3c-0.6,1.9-0.9,3.8-0.9,5.7v20.2h-3.8V24.8z"/>
	<path class="st4" d="M86.1,94.3c0.5,0.5,1.2,1,2.1,1.4c0.9,0.4,1.9,0.6,3,0.6c1.7,0,3-0.6,4-1.8c0.9-1.2,1.8-2.9,2.7-5.1l3.2-8.3
		L83.6,42.4H88l15.1,34l13-34h4.2L101,90.9c-0.3,0.9-0.8,1.8-1.3,2.8c-0.5,1-1.2,2-1.9,2.9c-0.8,0.9-1.7,1.6-2.8,2.2
		c-1.1,0.6-2.4,0.9-3.8,0.9c-1.6,0-3-0.2-4.1-0.7c-1.1-0.5-2.1-1.1-2.9-1.9L86.1,94.3z"/>
	<path class="st4" d="M125.1,74c1.6,1.6,3.5,2.9,5.7,3.8c2.1,0.9,4.6,1.3,7.5,1.3c1.6,0,3.1-0.2,4.5-0.5c1.4-0.3,2.7-0.8,3.8-1.4
		c1.1-0.6,1.9-1.3,2.6-2.3c0.6-0.9,0.9-2,0.9-3.2c0-1.4-0.3-2.6-0.9-3.5c-0.6-0.9-1.4-1.7-2.5-2.3c-1.1-0.6-2.5-1.1-4.2-1.5
		c-1.7-0.4-3.6-0.9-5.8-1.4c-1.8-0.4-3.5-0.9-5-1.4c-1.5-0.5-2.8-1.2-3.9-2c-1.1-0.8-1.9-1.8-2.6-3c-0.6-1.2-0.9-2.7-0.9-4.6
		c0-1.8,0.4-3.3,1.2-4.6c0.8-1.3,1.9-2.5,3.2-3.4c1.3-0.9,2.9-1.6,4.6-2c1.7-0.4,3.5-0.6,5.4-0.6c3.1,0,5.8,0.6,8.1,1.7
		c2.4,1.1,4.3,2.6,5.8,4.3l-2.6,2.4c-1.4-1.5-2.9-2.7-4.7-3.6c-1.8-0.9-3.9-1.4-6.4-1.4c-1.3,0-2.5,0.1-3.8,0.3
		c-1.2,0.2-2.4,0.6-3.4,1.1c-1,0.5-1.8,1.3-2.5,2.2c-0.6,0.9-0.9,2.2-0.9,3.7c0,1.3,0.4,2.3,1.1,3.2c0.7,0.9,1.6,1.6,2.8,2.1
		c1.1,0.6,2.4,1,3.9,1.4c1.5,0.4,3,0.7,4.4,1.1c1.6,0.3,3.2,0.8,4.8,1.3c1.6,0.5,3.1,1.2,4.4,2c1.3,0.8,2.4,1.9,3.2,3.2
		c0.8,1.3,1.2,2.9,1.2,4.8c0,2-0.5,3.7-1.4,5.1c-0.9,1.4-2.1,2.6-3.6,3.5c-1.5,0.9-3.2,1.6-5,2.1c-1.9,0.5-3.8,0.7-5.6,0.7
		c-3.7,0-6.8-0.5-9.4-1.6c-2.6-1.1-4.8-2.5-6.6-4.3L125.1,74z"/>
	<path class="st4" d="M162,42.4h3.8v39.2H162V42.4z M161.2,28.6h5.4v5.5h-5.4V28.6z"/>
	<path class="st4" d="M208.4,75.8c-1.6,2-3.8,3.6-6.4,4.9c-2.6,1.3-5.7,1.9-9.1,1.9c-2.8,0-5.5-0.5-7.9-1.6
		c-2.4-1.1-4.5-2.5-6.3-4.3c-1.8-1.8-3.1-4-4.1-6.6c-1-2.5-1.4-5.2-1.4-8.1c0-2.9,0.5-5.6,1.5-8.1c1-2.5,2.4-4.7,4.1-6.6
		c1.8-1.8,3.9-3.3,6.3-4.3c2.4-1.1,5-1.6,7.8-1.6c3.5,0,6.4,0.6,8.8,1.8c2.4,1.2,4.5,2.9,6.2,5.1l-2.9,2.2c-1.3-1.7-2.9-3.1-4.9-4
		c-2-1-4.4-1.5-7.2-1.5c-2.3,0-4.4,0.5-6.3,1.4c-1.9,0.9-3.6,2.1-4.9,3.7c-1.4,1.5-2.5,3.3-3.2,5.4c-0.8,2.1-1.1,4.3-1.1,6.6
		c0,2.3,0.4,4.5,1.2,6.6c0.8,2.1,1.9,3.9,3.3,5.4c1.4,1.5,3,2.8,4.9,3.7c1.9,0.9,4,1.4,6.2,1.4c2.8,0,5.4-0.5,7.5-1.5
		c2.2-1,3.9-2.4,5.2-4.1L208.4,75.8z"/>
	<path class="st4" d="M214.9,74c1.6,1.6,3.5,2.9,5.7,3.8c2.1,0.9,4.6,1.3,7.5,1.3c1.6,0,3.1-0.2,4.5-0.5c1.4-0.3,2.7-0.8,3.8-1.4
		c1.1-0.6,1.9-1.3,2.6-2.3c0.6-0.9,0.9-2,0.9-3.2c0-1.4-0.3-2.6-0.9-3.5c-0.6-0.9-1.4-1.7-2.5-2.3c-1.1-0.6-2.5-1.1-4.2-1.5
		c-1.7-0.4-3.6-0.9-5.8-1.4c-1.8-0.4-3.5-0.9-5-1.4c-1.5-0.5-2.8-1.2-3.9-2c-1.1-0.8-1.9-1.8-2.6-3c-0.6-1.2-0.9-2.7-0.9-4.6
		c0-1.8,0.4-3.3,1.2-4.6s1.9-2.5,3.2-3.4c1.3-0.9,2.9-1.6,4.6-2c1.7-0.4,3.5-0.6,5.4-0.6c3.1,0,5.8,0.6,8.1,1.7
		c2.4,1.1,4.3,2.6,5.8,4.3l-2.6,2.4c-1.4-1.5-2.9-2.7-4.7-3.6c-1.8-0.9-3.9-1.4-6.4-1.4c-1.3,0-2.5,0.1-3.8,0.3
		c-1.2,0.2-2.4,0.6-3.4,1.1c-1,0.5-1.8,1.3-2.5,2.2c-0.6,0.9-0.9,2.2-0.9,3.7c0,1.3,0.4,2.3,1.1,3.2c0.7,0.9,1.6,1.6,2.8,2.1
		c1.1,0.6,2.4,1,3.9,1.4c1.5,0.4,3,0.7,4.4,1.1c1.6,0.3,3.2,0.8,4.8,1.3c1.6,0.5,3.1,1.2,4.4,2c1.3,0.8,2.4,1.9,3.2,3.2
		c0.8,1.3,1.2,2.9,1.2,4.8c0,2-0.5,3.7-1.4,5.1c-0.9,1.4-2.1,2.6-3.6,3.5c-1.5,0.9-3.2,1.6-5,2.1c-1.9,0.5-3.8,0.7-5.6,0.7
		c-3.7,0-6.8-0.5-9.4-1.6c-2.6-1.1-4.8-2.5-6.6-4.3L214.9,74z"/>
</g>
</svg>
